PathFileType	4	(X/Y/Z)	E:\Marcel_BSc\Ayumi_22_01_2025\22-01-2025\conv_dl_0.trc
DataRate	CameraRate	NumFrames	NumMarkers	Units	OrigDataRate	OrigDataStartFrame	OrigNumFrames
200.0	200.0	4	47	mm	200.0	881	2348	
Frame#	Time	FHD			LBHD			RBHD			RBAR			LBAR			RSACR			LSACR			USACR			C7			CLAV			T10			RSHO			LSHO			LTHI1			LTHI3			LTHI2			LTIB1			LTIB2			LTIB3			LMMAL			LLMAL			LHEE			LMT1			LMT5			LMT3			RTHI1			RTHI2			RTHI3			RTIB1			RTIB3			RTIB2			RLMAL			RMMAL			RHEE			RMT5			RMT1			RMT3			LMUPA			LDUPA			LUUPA			LRAD			RUL			RRAD			RUFIN			RMUPA			RDUPA			RUUPA			
		X1	Y1	Z1	X2	Y2	Z2	X3	Y3	Z3	X4	Y4	Z4	X5	Y5	Z5	X6	Y6	Z6	X7	Y7	Z7	X8	Y8	Z8	X9	Y9	Z9	X10	Y10	Z10	X11	Y11	Z11	X12	Y12	Z12	X13	Y13	Z13	X14	Y14	Z14	X15	Y15	Z15	X16	Y16	Z16	X17	Y17	Z17	X18	Y18	Z18	X19	Y19	Z19	X20	Y20	Z20	X21	Y21	Z21	X22	Y22	Z22	X23	Y23	Z23	X24	Y24	Z24	X25	Y25	Z25	X26	Y26	Z26	X27	Y27	Z27	X28	Y28	Z28	X29	Y29	Z29	X30	Y30	Z30	X31	Y31	Z31	X32	Y32	Z32	X33	Y33	Z33	X34	Y34	Z34	X35	Y35	Z35	X36	Y36	Z36	X37	Y37	Z37	X38	Y38	Z38	X39	Y39	Z39	X40	Y40	Z40	X41	Y41	Z41	X42	Y42	Z42	X43	Y43	Z43	X44	Y44	Z44	X45	Y45	Z45	X46	Y46	Z46	X47	Y47	Z47	
881	4.395	-155.93922	961.87457	-618.30988	-135.96678	960.93542	-556.56097	-102.24509	961.41034	-685.23877	189.2144	240.57529	-1721.783	222.41133	249.67094	501.07562	543.16962	777.23804	-647.5929	540.4519	778.84412	-574.74408	530.2804	782.12891	-611.62073	105.08411	938.64954	-596.58783	104.48915	777.00916	-605.4165	369.40921	860.15216	-610.68176	68.214012	797.763	-743.16681	80.581505	794.09558	-451.40356	360.05237	517.69513	-407.64429	321.81171	466.09103	-423.27673	294.73996	508.61609	-417.1095	254.64246	218.21489	-421.61884	315.87039	234.8183	-410.20801	301.41815	171.28311	-416.5054	326.69214	73.653038	-502.0455	346.45178	73.103783	-426.88406	388.34192	36.321522	-472.93668	191.10019	44.557465	-451.87057	221.50861	28.63855	-376.89795	194.14427	40.998886	-416.87878	381.97836	508.94379	-826.17261	316.19507	504.57025	-825.77216	340.16974	461.01086	-810.80048	263.48471	259.09741	-819.44623	295.88104	203.99962	-806.23865	313.74527	265.6665	-820.21759	341.76993	74.438248	-776.23358	305.23401	80.309387	-705.87347	384.05606	32.676041	-729.15894	211.09293	31.174404	-814.06812	183.5128	41.263519	-753.54248	190.44041	38.069263	-783.78223	173.49294	633.86267	-377.92645	219.43704	646.56073	-362.36789	158.03429	693.61548	-381.89142	234.50818	316.04797	-331.59229	156.50529	312.59204	-889.33502	160.5239	307.68802	-826.48657	160.41318	233.49846	-824.97455	130.26958	713.60205	-828.40137	144.99649	655.26715	-845.26447	175.2485	728.71991	-842.75
882	4.4	-153.97394	964.24042	-618.36737	-134.4931	963.3421	-556.39026	-100.3935	963.45093	-685.23932	189.05817	240.52196	-1721.7781	222.11409	249.70667	501.11371	543.6181	775.3324	-647.65338	540.97412	777.13745	-574.90869	530.75537	780.74011	-611.75574	106.59853	938.71301	-596.56689	105.23972	777.05774	-605.44025	370.4162	858.57947	-610.91962	69.198792	798.09839	-743.18469	81.788704	794.35547	-451.28427	359.66293	516.76294	-407.58685	321.48859	465.45792	-422.95627	294.47824	508.06122	-416.85858	254.40198	218.0502	-421.35614	315.56946	234.73434	-410.04507	301.17987	171.16986	-416.38727	326.31287	73.472946	-501.56729	346.42752	73.079903	-426.77496	388.34271	36.338428	-472.92242	191.09019	44.577549	-451.84149	221.50275	28.658222	-376.85651	194.15372	41.001938	-416.83243	380.75262	508.65512	-826.25256	315.5257	503.95041	-825.70697	339.28848	460.18896	-810.83112	262.85611	258.81195	-819.41565	295.39911	203.81435	-806.2478	313.06262	265.57254	-820.29584	341.70303	74.409309	-776.26416	305.2037	80.24379	-705.84955	384.05252	32.676701	-729.159	211.10036	31.166973	-814.06287	183.50545	41.2495	-753.51587	190.44064	38.090805	-783.79614	174.51451	633.81323	-377.83643	220.41963	646.48859	-362.31314	159.01886	693.63855	-381.85727	234.46127	316.01874	-331.55472	156.45055	312.70508	-889.36749	160.32968	307.86172	-826.35803	160.14293	233.62979	-824.94507	131.20708	713.77704	-828.43323	145.81987	655.41632	-845.32678	176.11386	728.99506	-842.65082
883	4.405	-152.25282	966.78619	-618.36505	-132.77408	965.39203	-556.50055	-98.491684	965.36377	-685.25452	188.73712	240.18665	-1721.972	221.83278	249.7227	501.09769	544.04803	773.90149	-647.92688	541.47302	775.48767	-575.01227	531.25293	778.82593	-611.88092	108.15694	938.63434	-596.60693	105.98029	777.26318	-605.43506	371.32535	857.44965	-611.01447	70.101692	798.48596	-743.16016	83.035065	794.56543	-451.16861	359.52432	516.00226	-407.36588	320.84891	464.79907	-422.73962	294.16718	507.5264	-416.60928	265.7858	225.29451	-408.04895	315.24387	234.69238	-409.92606	300.96854	171.05983	-416.26343	326.57175	73.675797	-501.96777	346.38849	73.073616	-426.67642	388.33243	36.335232	-472.91254	191.07343	44.584099	-451.82208	221.47783	28.7204	-376.80997	194.14853	41.001514	-416.81668	380.06848	507.58392	-826.31183	314.82486	503.30746	-825.80823	338.42313	459.37317	-810.89075	262.21072	258.52872	-819.38568	294.92432	203.69464	-806.20758	312.85788	265.62964	-821.06073	341.6189	74.404587	-776.29865	305.17133	80.209251	-705.84796	384.05899	32.659199	-729.18634	211.09891	31.174223	-814.05017	183.49977	41.256348	-753.51575	190.47899	38.079556	-783.77618	175.37206	633.93298	-377.7753	221.45027	646.45154	-362.27853	160.17485	693.72632	-381.76077	234.32108	316.08786	-331.49805	156.42928	312.75635	-889.4054	160.43268	307.92969	-826.46893	159.89946	233.73132	-824.93634	132.16176	713.91968	-828.52051	146.63541	655.56421	-845.45728	177.13998	728.9826	-842.68463
884	4.41	-150.3981	969.21783	-618.36267	-130.96779	967.66095	-556.33264	-96.606873	967.30292	-685.25006	188.57069	240.15172	-1721.9783	221.59369	249.76234	501.0563	544.59186	771.7876	-647.9986	542.02997	773.78333	-575.17517	531.77991	777.05756	-612.06287	109.71066	938.61389	-596.63873	106.7703	777.22217	-605.50488	372.31369	856.59674	-610.94116	71.192505	798.6178	-743.3288	84.058952	794.73907	-451.14166	359.1106	514.99908	-407.31836	320.4476	464.07938	-422.46228	293.84433	506.94037	-416.39624	253.96082	218.50758	-421.43625	314.88956	234.58476	-409.78714	300.71881	170.95985	-416.14337	326.15622	73.506584	-501.53256	346.35645	73.055801	-426.59171	388.32031	36.347717	-472.91595	191.08429	44.594398	-451.79492	221.45045	28.74855	-376.77365	194.14328	41.016525	-416.80872	380.09418	506.16275	-826.18701	314.08197	502.54272	-825.83813	337.52527	458.58038	-810.96277	261.53156	258.30142	-819.35785	294.40292	203.42447	-806.25049	311.73569	265.12827	-820.46185	341.54483	74.376083	-776.33685	305.10553	80.149483	-705.83612	384.06546	32.626831	-729.19037	211.09558	31.178932	-814.05225	183.49969	41.26733	-753.52167	190.47369	38.096493	-783.77899	176.44005	633.97131	-377.6973	222.50574	646.31903	-362.40363	161.32884	693.87378	-381.67535	234.22571	316.04428	-331.51981	156.37981	312.8895	-889.43567	160.32103	308.05893	-826.50244	159.65021	233.82764	-824.9931	133.084	714.08643	-828.59796	147.44693	655.74036	-845.51556	178.09029	729.05017	-842.71118
